<?xml version="1.0" standalone="no"?>
<!DOCTYPE svg PUBLIC "-//W3C//DTD SVG 20010904//EN"
 "http://www.w3.org/TR/2001/REC-SVG-20010904/DTD/svg10.dtd">
<svg version="1.0" xmlns="http://www.w3.org/2000/svg"
 width="500.000000pt" height="500.000000pt" viewBox="0 0 500.000000 500.000000"
 preserveAspectRatio="xMidYMid meet">

<g transform="translate(0.000000,500.000000) scale(0.100000,-0.100000)"
fill="#000000" stroke="none">
<path d="M577 4178 c-39 -30 -30 -227 14 -328 73 -166 199 -230 583 -296 226
-38 256 -41 256 -19 0 26 -70 209 -88 228 -23 25 -75 51 -267 132 -251 105
-324 147 -422 244 -29 28 -54 51 -56 51 -2 0 -11 -6 -20 -12z"/>
<path d="M4385 4149 c-91 -94 -219 -165 -528 -294 -79 -33 -149 -69 -165 -85
-34 -34 -110 -239 -93 -249 14 -9 362 49 476 78 238 61 327 134 379 310 22 75
22 243 0 265 -22 22 -25 21 -69 -25z"/>
<path d="M1370 3843 c0 -33 27 -91 58 -124 53 -60 114 -86 269 -115 280 -53
350 -81 413 -167 26 -36 90 -205 90 -239 0 -6 -13 1 -30 17 -16 16 -30 37 -30
48 0 32 -20 57 -44 57 -13 0 -34 9 -47 20 l-24 19 32 1 c17 0 34 4 37 9 3 5
-8 27 -25 51 -44 60 -123 94 -305 130 -82 16 -176 38 -208 49 -33 12 -67 21
-78 21 -41 0 -7 -89 59 -152 73 -71 201 -108 374 -108 l71 0 -29 -24 c-29 -24
-32 -25 -122 -16 -52 5 -133 21 -182 36 -49 15 -92 24 -96 21 -10 -10 26 -83
56 -111 47 -45 118 -70 202 -71 69 0 76 -2 68 -17 -5 -9 -18 -19 -29 -23 -22
-7 -98 1 -147 17 -18 5 -37 7 -42 4 -15 -10 0 -45 32 -77 16 -16 27 -32 24
-35 -3 -3 -34 -7 -69 -9 -35 -2 -53 -2 -41 1 43 10 44 26 2 100 l-39 71 -100
12 c-56 6 -131 11 -168 11 -90 0 -287 26 -386 50 -108 27 -106 27 -106 -22 0
-49 34 -113 77 -144 73 -54 209 -104 281 -104 17 0 33 -4 36 -9 11 -18 -6 -41
-30 -41 -32 0 -39 -21 -20 -57 14 -29 13 -33 -39 -140 -105 -219 -221 -366
-439 -561 -181 -160 -190 -172 -195 -273 -3 -67 0 -85 24 -136 31 -68 74 -117
130 -145 52 -28 163 -35 227 -15 25 8 325 169 665 357 340 189 661 367 714
396 109 61 189 127 213 178 20 42 21 115 2 160 -13 32 -13 35 10 57 38 36 32
51 -14 35 -38 -14 -39 -13 -55 14 -16 27 -16 28 3 23 11 -3 41 2 66 12 43 16
48 16 90 0 25 -9 54 -15 65 -12 23 6 23 3 3 -28 -15 -22 -17 -23 -49 -9 -19 8
-37 14 -40 14 -12 0 -3 -20 20 -48 24 -29 24 -31 10 -66 -31 -73 -12 -148 54
-213 58 -57 106 -89 306 -195 88 -48 392 -215 675 -372 283 -158 539 -294 568
-302 75 -22 165 -15 228 17 125 64 188 248 129 372 -11 24 -66 81 -144 151
-250 223 -367 370 -472 589 -47 99 -50 110 -39 137 15 36 7 60 -19 60 -21 0
-45 32 -34 44 3 3 20 6 38 6 92 0 252 67 308 130 38 41 62 108 52 140 -8 24
-9 24 -103 1 -97 -25 -300 -51 -400 -52 -43 0 -117 -6 -167 -12 l-90 -12 -37
-65 c-21 -36 -38 -70 -38 -77 0 -6 12 -16 28 -22 23 -9 17 -10 -36 -7 -35 2
-66 6 -68 9 -3 2 11 20 31 40 41 41 48 83 13 73 -13 -3 -56 -12 -96 -18 -68
-11 -74 -10 -93 9 l-20 20 79 5 c126 9 209 59 247 151 14 34 14 37 -2 37 -9 0
-49 -11 -88 -25 -41 -14 -114 -28 -171 -34 -95 -8 -100 -8 -125 14 l-27 22
117 6 c139 8 231 33 293 80 45 34 92 103 104 150 8 35 -8 35 -103 3 -38 -13
-90 -27 -114 -31 -130 -21 -246 -48 -292 -69 -53 -23 -131 -98 -124 -119 2 -7
19 -13 37 -15 l33 -4 -29 -19 c-16 -10 -39 -19 -52 -19 -23 0 -29 -8 -35 -45
-3 -21 -57 -99 -63 -92 -6 5 46 178 63 210 27 54 92 114 151 140 31 14 120 37
197 52 259 48 321 72 375 147 28 38 49 103 37 114 -3 3 -52 -10 -108 -30 -57
-19 -174 -47 -259 -61 -259 -45 -356 -77 -433 -144 -51 -45 -80 -110 -136
-297 -83 -281 -98 -304 -203 -304 -98 0 -110 20 -218 380 -37 123 -64 173
-119 223 -73 66 -152 93 -376 132 -179 31 -248 48 -335 81 -68 25 -90 29 -90
17z m729 -627 c10 -11 -1 -17 -61 -30 -105 -24 -108 -25 -108 -16 0 15 34 35
79 46 64 16 77 16 90 0z m907 3 c53 -11 84 -29 84 -51 0 -4 -6 -6 -12 -3 -7 2
-48 11 -91 20 -65 14 -76 19 -66 31 14 17 11 17 85 3z m-740 -236 c72 -127 75
-135 58 -148 -11 -8 -43 -31 -71 -52 -29 -21 -51 -42 -49 -48 9 -30 99 -2 140
44 30 33 39 13 10 -22 -29 -36 -98 -76 -130 -77 -11 0 -29 -9 -39 -20 -10 -11
-27 -20 -38 -20 -19 0 -20 1 -2 20 25 27 13 35 -53 35 -42 0 -58 4 -60 15 -2
8 -22 29 -44 45 -34 24 -107 131 -108 155 0 3 20 7 44 8 83 3 276 89 276 123
0 54 -18 59 -106 29 -67 -24 -183 -50 -220 -50 -14 0 -24 6 -24 14 0 9 22 18
66 25 74 13 224 58 238 72 16 15 34 -9 112 -148z m730 103 c49 -14 110 -28
137 -32 47 -6 61 -19 32 -30 -21 -9 -125 11 -229 43 -87 26 -89 27 -102 8 -24
-32 -12 -48 61 -87 81 -43 161 -70 210 -71 19 -1 35 -4 35 -8 0 -19 -13 -38
-22 -33 -5 3 -37 13 -70 20 -34 8 -99 32 -146 54 -47 22 -90 40 -97 40 -6 0
-17 -11 -23 -26 -11 -23 -9 -28 20 -55 18 -16 69 -48 113 -70 91 -46 116 -46
174 -2 l36 28 -17 -28 c-10 -15 -25 -38 -33 -51 -9 -12 -31 -32 -50 -42 -20
-10 -33 -24 -31 -31 6 -15 -16 -23 -43 -16 -11 3 -37 2 -56 -1 -34 -7 -35 -7
-19 -31 15 -24 15 -25 -3 -25 -11 0 -28 9 -38 20 -10 11 -28 20 -39 20 -39 0
-146 78 -146 107 0 21 14 15 45 -17 35 -36 94 -57 120 -43 15 9 7 18 -54 63
-39 30 -71 58 -71 63 0 11 39 81 112 204 l49 83 28 -14 c15 -8 67 -26 117 -40z
m-1562 -68 c-3 -13 -9 -25 -11 -28 -3 -3 -43 -7 -90 -9 -81 -3 -85 -2 -75 15
8 14 31 22 89 30 43 6 82 12 86 13 5 0 5 -9 1 -21z m366 16 c0 -4 -8 -13 -17
-20 -17 -12 -16 -14 8 -41 15 -15 31 -41 36 -58 l10 -30 -156 -52 c-85 -28
-157 -57 -159 -63 -6 -16 37 -60 75 -76 66 -28 167 -5 253 57 34 25 44 28 51
17 5 -7 9 -15 9 -18 0 -3 -38 -27 -85 -54 -47 -27 -84 -54 -82 -60 2 -6 20
-19 41 -30 33 -16 43 -17 79 -6 23 7 61 26 85 43 29 21 46 27 53 20 7 -7 -2
-21 -30 -45 -48 -41 -51 -55 -13 -64 15 -3 31 -7 36 -8 5 -1 -22 -20 -60 -41
-38 -21 -244 -137 -459 -258 -491 -277 -684 -369 -864 -411 l-60 -14 -10 31
c-16 45 -13 132 6 171 10 21 75 87 160 163 80 70 154 139 167 153 21 25 27 27
102 26 166 -2 254 62 344 247 57 118 66 162 36 162 -14 0 -29 -24 -60 -96 -74
-168 -138 -237 -237 -258 -61 -13 -109 -14 -109 -2 0 5 11 22 24 38 46 55 137
202 182 297 37 76 51 95 63 90 113 -48 203 -44 406 16 77 23 146 45 154 50 11
6 4 18 -29 54 -37 40 -40 46 -24 52 11 3 28 9 39 14 25 11 35 12 35 4z m1475
-9 l37 -16 -37 -45 c-21 -25 -34 -49 -29 -53 5 -4 74 -27 154 -51 181 -55 285
-63 369 -31 30 11 55 20 55 18 1 -1 29 -58 64 -127 34 -69 91 -164 127 -213
36 -48 65 -89 65 -92 0 -11 -79 -4 -131 11 -86 25 -152 100 -214 242 -35 81
-54 112 -66 112 -29 0 -27 -21 6 -100 53 -124 75 -161 127 -216 69 -73 129
-98 240 -98 l88 -1 77 -76 c43 -41 118 -111 167 -154 120 -107 148 -174 113
-275 -15 -43 -19 -43 -181 11 -174 58 -337 139 -837 422 -405 228 -445 253
-417 258 52 12 53 24 3 64 -36 30 -43 40 -32 47 10 5 32 -3 66 -26 63 -43 96
-50 146 -34 64 21 56 40 -40 98 -70 42 -84 54 -74 66 9 12 15 11 38 -5 56 -39
136 -73 187 -78 45 -5 59 -2 98 21 42 25 64 55 52 74 -3 5 -73 31 -156 57
-147 48 -151 50 -145 74 4 14 17 38 31 54 27 33 31 57 8 57 -8 0 -12 5 -9 10
8 13 6 13 50 -5z m410 0 c63 -6 84 -16 85 -37 0 -5 -33 -8 -73 -8 -75 0 -99 9
-111 43 -4 14 -2 17 12 13 9 -2 49 -7 87 -11z m-2142 -15 c5 -4 -7 -10 -27
-12 -20 -2 -36 -3 -36 -2 0 1 3 10 6 18 6 16 38 14 57 -4z m1995 2 c2 -8 -8
-12 -27 -12 -33 0 -42 16 -13 23 23 6 35 3 40 -11z m-869 -388 c33 -33 75 -53
88 -41 3 4 -2 18 -11 33 -32 47 -8 37 47 -20 52 -53 69 -62 119 -57 17 2 148
-70 713 -389 378 -214 573 -306 753 -355 34 -10 62 -21 62 -26 0 -13 -62 -55
-99 -68 -50 -16 -124 -14 -178 7 -27 10 -320 169 -653 354 -333 184 -644 356
-691 381 -174 93 -244 181 -212 263 5 14 9 12 18 -15 6 -18 26 -48 44 -67z
m-249 44 c0 -81 -57 -138 -225 -231 -55 -30 -372 -205 -705 -390 -333 -184
-623 -340 -645 -346 -87 -24 -175 -8 -231 41 l-35 31 128 42 c229 76 290 107
848 422 455 258 542 305 562 303 43 -5 59 3 110 55 60 61 84 71 57 25 -10 -16
-15 -32 -11 -36 22 -22 127 68 127 108 0 10 5 18 10 18 6 0 10 -19 10 -42z"/>
<path d="M2127 2953 c-37 -19 -99 -42 -137 -52 -39 -9 -73 -20 -76 -24 -11
-11 27 -48 64 -64 42 -17 86 -6 167 42 99 60 124 92 93 123 -18 18 -36 14
-111 -25z"/>
<path d="M2210 2868 c-30 -22 -76 -51 -102 -64 -51 -26 -55 -33 -36 -52 18
-18 69 -14 108 9 60 36 130 93 130 105 0 10 -32 45 -41 43 -2 0 -29 -19 -59
-41z"/>
<path d="M2724 2889 c-19 -21 -19 -21 21 -56 104 -90 173 -114 209 -74 17 19
16 20 -34 45 -29 15 -78 44 -109 66 -31 22 -59 40 -62 40 -3 0 -14 -9 -25 -21z"/>
<path d="M607 3693 c-25 -25 14 -142 69 -210 74 -90 165 -129 369 -157 152
-21 462 -44 476 -35 16 9 -19 114 -47 140 -17 16 -72 30 -265 65 -361 66 -467
98 -542 164 -48 43 -50 44 -60 33z"/>
<path d="M4370 3669 c-85 -74 -183 -105 -515 -165 -137 -24 -265 -51 -283 -59
-35 -16 -59 -59 -70 -124 l-5 -34 134 6 c158 8 376 32 474 53 77 16 155 51
197 88 76 68 132 179 121 239 -7 34 -10 33 -53 -4z"/>
</g>
</svg>
